<svg width="26" height="26" viewBox="0 0 26 26" fill="none" xmlns="http://www.w3.org/2000/svg">
<path d="M17.875 22.75L23.075 19.5L17.875 16.25V22.75ZM3.9 7.8H19.5V5.2H3.9V7.8ZM19.5 26C17.7017 26 16.169 25.366 14.9019 24.0981C13.6348 22.8302 13.0009 21.2975 13 19.5C12.9991 17.7025 13.6331 16.1698 14.9019 14.9019C16.1707 13.634 17.7034 13 19.5 13C21.2966 13 22.8297 13.634 24.0994 14.9019C25.3691 16.1698 26.0026 17.7025 26 19.5C25.9974 21.2975 25.3634 22.8306 24.0981 24.0994C22.8328 25.3682 21.3001 26.0017 19.5 26ZM0 24.7V2.6C0 1.885 0.2548 1.27313 0.7644 0.7644C1.274 0.255667 1.88587 0.000866667 2.6 0H20.8C21.515 0 22.1273 0.2548 22.6369 0.7644C23.1465 1.274 23.4009 1.88587 23.4 2.6V11.2775C22.7933 10.9742 22.1594 10.7519 21.4981 10.6106C20.8368 10.4693 20.1708 10.3991 19.5 10.4H3.9V13H13.13C12.7617 13.3683 12.4206 13.7692 12.1069 14.2025C11.7932 14.6358 11.5167 15.1017 11.2775 15.6H3.9V18.2H10.4975C10.4542 18.4167 10.4273 18.6281 10.4169 18.8344C10.4065 19.0407 10.4009 19.2625 10.4 19.5C10.4 20.41 10.5248 21.2823 10.7744 22.1169C11.024 22.9515 11.3975 23.7475 11.895 24.505L11.7 24.7L9.75 22.75L7.8 24.7L5.85 22.75L3.9 24.7L1.95 22.75L0 24.7Z" fill="white"/>
</svg>
