<svg width="26" height="26" viewBox="0 0 26 26" fill="none" xmlns="http://www.w3.org/2000/svg">
<path d="M12.9414 3.24942C14.8185 3.24973 16.6559 3.78717 18.2349 4.79774C19.8138 5.80831 21.0677 7.24941 21.8472 8.94941C22.6268 10.6494 22.899 12.5366 22.6316 14.3863C22.3642 16.236 21.5684 17.9702 20.339 19.3824C19.1096 20.7945 17.4984 21.8251 15.6973 22.3514C13.8962 22.8777 11.9811 22.8774 10.1801 22.3507C8.37913 21.8241 6.76816 20.7931 5.53908 19.3807C4.31 17.9682 3.51461 16.2338 3.24765 14.3841C3.18647 13.9575 2.95759 13.5726 2.61135 13.314C2.2651 13.0554 1.82986 12.9444 1.40137 13.0053C0.972877 13.0662 0.586235 13.294 0.326501 13.6387C0.0667669 13.9834 -0.0447844 14.4167 0.0163874 14.8433C0.429003 17.7113 1.79211 20.3598 3.88929 22.3685C5.98647 24.3771 8.69754 25.6307 11.5921 25.9303C14.4866 26.2299 17.3987 25.5582 19.866 24.022C22.3334 22.4858 24.2145 20.173 25.2109 17.4509C26.2072 14.7287 26.2616 11.7533 25.3654 8.99683C24.4692 6.24041 22.6739 3.86102 20.2643 2.23642C17.8547 0.611824 14.9691 -0.164873 12.0656 0.0296419C9.16199 0.224157 6.4069 1.37874 4.23769 3.31007V1.62471C4.23769 1.19381 4.06576 0.780558 3.75971 0.475866C3.45366 0.171174 3.03857 0 2.60575 0C2.17293 0 1.75783 0.171174 1.45178 0.475866C1.14573 0.780558 0.973797 1.19381 0.973797 1.62471V8.12354C0.973797 9.02038 1.70491 9.74825 2.60575 9.74825H8.04557C8.47839 9.74825 8.89349 9.57708 9.19954 9.27239C9.50559 8.96769 9.67752 8.55444 9.67752 8.12354C9.67752 7.69264 9.50559 7.27939 9.19954 6.9747C8.89349 6.67001 8.47839 6.49884 8.04557 6.49884H5.64335C6.56176 5.47657 7.68651 4.65875 8.9441 4.09882C10.2017 3.53889 11.5638 3.24945 12.9414 3.24942ZM14.0294 8.12354C14.0294 7.69264 13.8574 7.27939 13.5514 6.9747C13.2453 6.67001 12.8303 6.49884 12.3974 6.49884C11.9646 6.49884 11.5495 6.67001 11.2435 6.9747C10.9374 7.27939 10.7655 7.69264 10.7655 8.12354V13.5392C10.7655 14.4361 11.4966 15.1639 12.3974 15.1639H16.7493C17.1821 15.1639 17.5972 14.9928 17.9033 14.6881C18.2093 14.3834 18.3813 13.9701 18.3813 13.5392C18.3813 13.1083 18.2093 12.6951 17.9033 12.3904C17.5972 12.0857 17.1821 11.9145 16.7493 11.9145H14.0294V8.12354Z" fill="white"/>
</svg>
