<svg width="32" height="17" viewBox="0 0 32 17" fill="none" xmlns="http://www.w3.org/2000/svg">
<path d="M-0.000187397 -0.000196457H3.88781V16.7998H-0.000187397V-0.000196457ZM7.87481 -0.000196457H15.5068C17.3308 -0.000196457 18.9388 0.359803 20.3308 1.0558C21.7228 1.7518 22.8268 2.7358 23.5948 3.9838C24.3628 5.2558 24.7708 6.7198 24.7708 8.3998C24.7708 10.0798 24.3628 11.5678 23.5948 12.8158C22.8268 14.0878 21.7228 15.0718 20.3308 15.7678C18.9388 16.4638 17.3308 16.7998 15.5068 16.7998H7.87481V-0.000196457ZM15.3148 13.6078C16.9948 13.6078 18.3148 13.1518 19.3228 12.2158C20.3308 11.2798 20.8348 10.0078 20.8348 8.3998C20.8348 6.8158 20.3308 5.5438 19.3228 4.6078C18.3148 3.6718 16.9948 3.1918 15.3148 3.1918H11.7628V13.6078H15.3148ZM27.1989 7.7038C26.7429 7.2718 26.5269 6.6958 26.5269 6.0238C26.5269 5.3518 26.7429 4.7998 27.1989 4.3678C27.6309 3.9358 28.1829 3.7198 28.8549 3.7198C29.5029 3.7198 30.0549 3.9358 30.5109 4.3678C30.9429 4.7998 31.1829 5.3518 31.1829 6.0238C31.1829 6.6958 30.9429 7.2718 30.5109 7.7038C30.0549 8.1598 29.5029 8.3758 28.8549 8.3758C28.1829 8.3758 27.6309 8.1598 27.1989 7.7038ZM27.1989 16.3198C26.7429 15.8878 26.5269 15.3118 26.5269 14.6398C26.5269 13.9678 26.7429 13.4158 27.1989 12.9838C27.6309 12.5518 28.1829 12.3358 28.8549 12.3358C29.5029 12.3358 30.0549 12.5518 30.5109 12.9838C30.9429 13.4158 31.1829 13.9678 31.1829 14.6398C31.1829 15.3118 30.9429 15.8878 30.5109 16.3198C30.0549 16.7758 29.5029 16.9918 28.8549 16.9918C28.1829 16.9918 27.6309 16.7758 27.1989 16.3198Z" fill="white"/>
</svg>
