<svg width="25" height="25" viewBox="0 0 25 25" fill="none" xmlns="http://www.w3.org/2000/svg">
<path d="M20.0033 15.0014C19.9371 15.0014 19.8783 15.0189 19.8096 15.0214L16.0273 8.54981C16.7305 7.85241 17.2107 6.9617 17.407 5.99074C17.6034 5.01978 17.507 4.01234 17.1301 3.09628C16.7533 2.18023 16.1129 1.39685 15.2903 0.845581C14.4677 0.294311 13.4999 0 12.5098 0C11.5198 0 10.552 0.294311 9.7294 0.845581C8.90679 1.39685 8.26641 2.18023 7.88954 3.09628C7.51266 4.01234 7.41628 5.01978 7.61262 5.99074C7.80897 6.9617 8.28919 7.85241 8.99234 8.54981L5.22126 15.0227C5.15006 15.0189 5.08511 15.0014 5.01391 15.0014C4.07867 14.9981 3.16129 15.2576 2.36613 15.7502C1.57097 16.2428 0.929965 16.9489 0.51603 17.788C0.102095 18.6272 -0.0681482 19.5657 0.0246697 20.4968C0.117488 21.428 0.469639 22.3144 1.04106 23.0552C1.61249 23.796 2.38024 24.3615 3.25698 24.6873C4.13371 25.013 5.08424 25.0861 6.00041 24.898C6.91658 24.71 7.76161 24.2685 8.43937 23.6236C9.11714 22.9788 9.60042 22.1566 9.83424 21.2505H15.1829C15.4179 22.154 15.9014 22.9734 16.5785 23.6157C17.2556 24.258 18.0991 24.6975 19.0133 24.8842C19.9275 25.0709 20.8757 24.9973 21.7502 24.6719C22.6247 24.3465 23.3904 23.7822 23.9605 23.0431C24.5306 22.3041 24.8821 21.4199 24.9751 20.491C25.0682 19.5621 24.899 18.6257 24.4869 17.7882C24.0747 16.9507 23.4361 16.2455 22.6436 15.7529C21.851 15.2603 20.9363 15 20.0033 15.0014ZM15.1829 18.7509H9.83424C9.51702 17.522 8.74386 16.4601 7.67202 15.7813L11.1608 9.79464C12.0392 10.0721 12.9817 10.0721 13.8601 9.79464L17.3576 15.7763C16.2796 16.4535 15.5015 17.5178 15.1829 18.7509Z" fill="white"/>
</svg>
