<svg width="26" height="26" viewBox="0 0 26 26" fill="none" xmlns="http://www.w3.org/2000/svg">
<path d="M7.93 24.9769C6.34833 24.294 4.9725 23.3675 3.8025 22.1975C2.6325 21.0275 1.70647 19.6517 1.0244 18.07C0.342335 16.4883 0.000868312 14.7983 1.64557e-06 13C-0.00086502 11.2017 0.340602 9.51166 1.0244 7.93C1.7082 6.34833 2.63423 4.9725 3.8025 3.8025C4.97077 2.6325 6.3466 1.70647 7.93 1.0244C9.5134 0.342335 11.2034 0.000868312 13 1.64557e-06C14.7966 -0.00086502 16.4866 0.340602 18.07 1.0244C19.6534 1.7082 21.0292 2.63423 22.1975 3.8025C23.3658 4.97077 24.2922 6.3466 24.9769 7.93C25.6616 9.5134 26.0026 11.2034 26 13C25.9974 14.7966 25.6559 16.4866 24.9756 18.07C24.2953 19.6534 23.3692 21.0292 22.1975 22.1975C21.0258 23.3658 19.6499 24.2922 18.07 24.9769C16.4901 25.6616 14.8001 26.0026 13 26C11.1999 25.9974 9.50993 25.6572 7.93 24.9769ZM9.23 22.685L10.79 19.11C9.87999 18.785 9.0948 18.2815 8.4344 17.5994C7.774 16.9173 7.2592 16.1209 6.89 15.21L3.315 16.705C3.81333 18.0917 4.5825 19.305 5.6225 20.345C6.6625 21.385 7.865 22.165 9.23 22.685ZM6.89 10.79C7.25833 9.87999 7.77313 9.08396 8.4344 8.4019C9.09566 7.71983 9.88086 7.21586 10.79 6.89L9.295 3.315C7.90833 3.835 6.695 4.615 5.655 5.655C4.615 6.695 3.835 7.90833 3.315 9.295L6.89 10.79ZM15.7625 15.7625C16.5208 15.0042 16.9 14.0833 16.9 13C16.9 11.9167 16.5208 10.9958 15.7625 10.2375C15.0042 9.47916 14.0833 9.1 13 9.1C11.9167 9.1 10.9958 9.47916 10.2375 10.2375C9.47916 10.9958 9.1 11.9167 9.1 13C9.1 14.0833 9.47916 15.0042 10.2375 15.7625C10.9958 16.5208 11.9167 16.9 13 16.9C14.0833 16.9 15.0042 16.5208 15.7625 15.7625ZM16.77 22.685C18.135 22.165 19.3323 21.3906 20.3619 20.3619C21.3915 19.3332 22.1659 18.1359 22.685 16.77L19.11 15.21C18.785 16.12 18.2867 16.9056 17.615 17.5669C16.9433 18.2282 16.1633 18.7425 15.275 19.11L16.77 22.685ZM19.11 10.725L22.685 9.23C22.165 7.865 21.3906 6.66813 20.3619 5.6394C19.3332 4.61067 18.1359 3.83587 16.77 3.315L15.275 6.955C16.1633 7.28 16.9325 7.77313 17.5825 8.4344C18.2325 9.09566 18.7417 9.85919 19.11 10.725Z" fill="white"/>
</svg>
