<svg width="310" height="79" viewBox="0 0 310 79" fill="none" xmlns="http://www.w3.org/2000/svg">
<mask id="mask0_294_2089" style="mask-type:alpha" maskUnits="userSpaceOnUse" x="0" y="0" width="310" height="79">
<rect width="310" height="79" rx="39.5" fill="#D9D9D9"/>
<rect width="310" height="79" rx="39.5" fill="url(#paint0_linear_294_2089)"/>
</mask>
<g mask="url(#mask0_294_2089)">
<path fill-rule="evenodd" clip-rule="evenodd" d="M302.123 17.4824C304.069 17.2536 305.271 17.4862 305.271 17.4862L281.109 97.468L229.481 77.2742C229.481 77.2742 249.963 26.6065 250.4 24.8902C250.982 22.6109 250.982 22.6109 254.276 22.0427C254.535 22.093 255.307 22.0165 256.509 21.8937C258.759 21.6524 261.015 21.48 263.272 21.377C266.981 14.2904 276.786 0.578735 289.406 3.02011C291.219 3.37088 292.869 4.28087 293.487 6.80646L294.092 6.92369C299.503 7.97039 301.487 12.5566 302.123 17.4824ZM283.762 19.3907C286.025 19.1849 288.365 18.9748 290.574 18.2449C291.45 14.8123 291.429 12.402 291.412 9.99275C288.12 10.5564 283.642 13.2921 280.077 19.8112C281.301 19.6231 282.53 19.4829 283.762 19.3907ZM289.591 7.25837C289.137 6.56539 288.536 6.44909 287.93 6.33186C279.505 4.70179 271.338 14.5233 267.774 21.057C269.05 21.0013 270.362 20.8036 271.674 20.606C272.986 20.4084 274.298 20.2108 275.577 20.1605C279.72 11.3567 285.551 8.28239 289.591 7.25837ZM273.494 43.1512C277.101 43.849 280.264 46.2667 280.264 46.2667L285.287 36.4423C285.287 36.4423 283.18 34.8338 278.37 33.9034C265.145 31.3448 257.092 38.1867 254.904 46.7682C253.433 52.535 256.191 55.7293 258.615 58.5324C260.514 60.7247 262.199 62.6836 261.494 65.4481C261.205 66.5831 260.019 68.7598 257.018 68.1792C252.815 67.3661 249.027 62.4309 249.027 62.4309L244.57 69.9733C244.57 69.9733 247.92 76.6248 257.538 78.4856C265.348 79.9965 272.824 75.4394 275.012 66.8579C276.798 59.8553 272.698 55.5321 269.518 52.1891C267.5 50.0697 265.857 48.3399 266.31 46.564C266.602 45.4198 267.477 41.9872 273.494 43.1512ZM294.413 10.5733C294.575 12.4105 294.592 14.8198 293.863 17.6757L293.718 18.2479C294.626 18.4237 295.413 18.427 296.194 18.4293C296.987 18.4289 297.773 18.4322 298.673 18.6062C298.348 14.9318 297.414 11.1539 294.413 10.5733ZM318.687 26.6805C319.288 26.7968 319.889 26.9131 319.743 27.4852C319.669 27.7735 317.906 45.3319 316.146 62.7996C314.404 80.0787 312.676 97.2644 312.604 97.5435L282.29 97.6822L306.322 18.2946L306.923 18.4109L311.024 24.5928C311.024 24.5928 318.085 26.5642 318.687 26.6805Z" fill="url(#paint1_linear_294_2089)" fill-opacity="0.5"/>
</g>
<defs>
<linearGradient id="paint0_linear_294_2089" x1="0" y1="0" x2="37.8091" y2="148.365" gradientUnits="userSpaceOnUse">
<stop stop-color="#2DCAD4"/>
<stop offset="1" stop-color="#288F96"/>
</linearGradient>
<linearGradient id="paint1_linear_294_2089" x1="257.639" y1="14.7084" x2="314.393" y2="80.67" gradientUnits="userSpaceOnUse">
<stop stop-color="white"/>
<stop offset="1" stop-color="white" stop-opacity="0"/>
</linearGradient>
</defs>
</svg>
