<svg width="310" height="79" viewBox="0 0 310 79" fill="none" xmlns="http://www.w3.org/2000/svg">
<mask id="mask0_294_2123" style="mask-type:alpha" maskUnits="userSpaceOnUse" x="0" y="0" width="310" height="79">
<rect width="310" height="79" rx="39.5" fill="#D9D9D9"/>
<rect width="310" height="79" rx="39.5" fill="url(#paint0_linear_294_2123)"/>
</mask>
<g mask="url(#mask0_294_2123)">
<path d="M245.808 68.9321C249.134 60.0904 269.838 60.6138 279.276 63.3071C288.713 66.0003 305.758 76.2497 302.432 85.0914L300.769 89.5123L244.145 73.353M301.581 45.6846C300.258 49.2021 297.497 52.1498 293.907 53.8794C290.316 55.6091 286.19 55.9788 282.435 54.9074C278.681 53.836 275.606 51.4111 273.887 48.1663C272.168 44.9214 271.946 41.1224 273.269 37.6049C274.592 34.0875 277.353 31.1397 280.943 29.4101C284.534 27.6805 288.66 27.3107 292.414 28.3821C296.169 29.4535 299.244 31.8784 300.963 35.1232C302.682 38.3681 302.904 42.1671 301.581 45.6846ZM251.609 11.8418L228.325 73.7341C227.443 76.079 227.592 78.6117 228.738 80.7749C229.884 82.9382 231.934 84.5547 234.437 85.269L300.498 104.122C303.001 104.836 305.752 104.589 308.145 103.436C310.539 102.283 312.379 100.318 313.262 97.973L336.545 36.0807C337.428 33.7357 337.279 31.2031 336.133 29.0398C334.987 26.8766 332.937 25.26 330.434 24.5458L264.373 5.69322C261.87 4.97893 259.119 5.22544 256.725 6.37852C254.332 7.53159 252.491 9.49678 251.609 11.8418Z" fill="url(#paint1_linear_294_2123)" fill-opacity="0.5"/>
</g>
<defs>
<linearGradient id="paint0_linear_294_2123" x1="0" y1="0" x2="37.8091" y2="148.365" gradientUnits="userSpaceOnUse">
<stop stop-color="#2DCAD4"/>
<stop offset="1" stop-color="#288F96"/>
</linearGradient>
<linearGradient id="paint1_linear_294_2123" x1="239.292" y1="8.58109" x2="316.481" y2="97.2503" gradientUnits="userSpaceOnUse">
<stop stop-color="white"/>
<stop offset="1" stop-color="white" stop-opacity="0"/>
</linearGradient>
</defs>
</svg>
