<svg width="310" height="79" viewBox="0 0 310 79" fill="none" xmlns="http://www.w3.org/2000/svg">
<mask id="mask0_283_1971" style="mask-type:alpha" maskUnits="userSpaceOnUse" x="0" y="0" width="310" height="79">
<rect width="310" height="79" rx="39.5" fill="#D9D9D9"/>
<rect width="310" height="79" rx="39.5" fill="url(#paint0_linear_283_1971)"/>
</mask>
<g mask="url(#mask0_283_1971)">
<path fill-rule="evenodd" clip-rule="evenodd" d="M238.109 18.7806C235.693 19.3406 233.71 20.8064 232.595 22.8556C231.48 24.9048 231.325 27.3695 232.165 29.7075L255.899 95.8233C257.158 99.3303 259.805 102.36 263.258 104.246C266.71 106.132 270.686 106.719 274.309 105.879L328.962 93.21C330.17 92.93 331.162 92.1971 331.719 91.1725C332.277 90.1479 332.354 88.9155 331.934 87.7465C331.515 86.5775 330.632 85.5676 329.481 84.939C328.331 84.3104 327.005 84.1146 325.798 84.3946L316.689 86.5061L313.524 77.6906L322.633 75.5791C323.841 75.2991 324.833 74.5662 325.39 73.5416C325.947 72.517 326.025 71.2846 325.605 70.1156L305.035 12.8153C304.196 10.4773 302.431 8.45749 300.129 7.20026C297.828 5.94303 295.177 5.55134 292.762 6.11136L256.326 14.5575L281.643 85.081L304.415 79.8022L307.58 88.6176L271.145 97.0638C269.937 97.3438 268.612 97.1479 267.461 96.5193C266.31 95.8907 265.428 94.8808 265.008 93.7118C264.588 92.5428 264.666 91.3104 265.223 90.2858C265.78 89.2612 266.772 88.5283 267.98 88.2483L272.534 87.1925L247.218 16.669L238.109 18.7806Z" fill="url(#paint1_linear_283_1971)" fill-opacity="0.5"/>
</g>
<defs>
<linearGradient id="paint0_linear_283_1971" x1="0" y1="0" x2="37.8091" y2="148.365" gradientUnits="userSpaceOnUse">
<stop stop-color="#2DCAD4"/>
<stop offset="1" stop-color="#288F96"/>
</linearGradient>
<linearGradient id="paint1_linear_283_1971" x1="265.435" y1="12.446" x2="286.442" y2="103.067" gradientUnits="userSpaceOnUse">
<stop stop-color="white"/>
<stop offset="1" stop-color="white" stop-opacity="0"/>
</linearGradient>
</defs>
</svg>
