<svg width="310" height="79" viewBox="0 0 310 79" fill="none" xmlns="http://www.w3.org/2000/svg">
<mask id="mask0_294_2116" style="mask-type:alpha" maskUnits="userSpaceOnUse" x="0" y="0" width="310" height="79">
<rect width="310" height="79" rx="39.5" fill="#D9D9D9"/>
<rect width="310" height="79" rx="39.5" fill="url(#paint0_linear_294_2116)"/>
</mask>
<g mask="url(#mask0_294_2116)">
<path d="M318.629 116.48L322.654 122.335C324.362 124.82 325.061 127.845 324.443 130.715C323.827 133.589 321.941 136.062 319.359 137.635C318.852 137.961 318.499 138.46 318.372 139.032C318.244 139.603 318.352 140.204 318.673 140.711C319.033 141.195 319.571 141.534 320.177 141.658C320.784 141.783 321.412 141.685 321.936 141.383C325.55 139.182 328.026 135.679 328.895 131.662C329.329 129.677 329.346 127.622 328.943 125.614C328.54 123.606 327.727 121.686 326.548 119.963L322.521 114.104L318.629 116.48ZM309.131 2.95326L326.157 51.5747L337.45 84.077L325.349 94.1061C324.986 93.5776 324.613 93.1559 324.182 92.6579L333.349 75.6046C333.529 75.2559 333.609 74.8671 333.583 74.476C333.556 74.085 333.423 73.7052 333.197 73.3737L288.911 8.95164L309.131 2.95326ZM279.06 2.65809L328.499 74.5763L312.764 103.93L300.376 104.499C300.115 103.396 300.037 102.265 300.144 101.147C300.271 100.036 300.576 98.9542 301.048 97.9373C303.406 98.4057 305.844 97.9931 307.854 96.786C309.134 95.9995 310.181 94.9177 310.9 93.6388C311.618 92.3598 311.986 90.9242 311.968 89.4622C311.989 89.2959 311.99 89.1276 311.972 88.9604C311.893 87.3983 311.382 85.8753 310.489 84.5458C307.663 80.4341 301.82 79.1915 297.547 81.7936C293.275 84.3957 292.085 89.9222 294.912 94.0338C295.442 94.806 296.097 95.4763 296.808 96.0372C296.153 97.4787 295.657 99.0247 295.492 100.657C295.364 102.006 295.373 103.281 295.602 104.578L277.871 105.413L228.432 33.4943L253.746 18.0762L279.06 2.65809ZM275.421 23.4854C272.924 19.8535 269.377 19.3553 265.428 21.7605C258.379 26.0539 262.356 33.9367 257.278 37.0298C255.518 38.102 254.497 37.7506 253.68 36.5624C252.863 35.3743 252.855 34.2363 254.619 33.1618L256.445 32.0493L254.031 28.5374L252.45 29.5004C248.501 31.9057 247.587 35.2379 250.107 38.9036C252.627 42.5692 256.151 43.0337 260.1 40.6285C267.149 36.3351 263.172 28.4523 268.25 25.3591C270.01 24.287 271.156 24.5625 271.972 25.7507C272.789 26.9388 272.587 28.0351 270.827 29.1072L269.729 29.7761L272.145 33.2918L273.002 32.77C276.947 30.3671 277.918 27.1173 275.421 23.4854ZM282.22 34.1318L255.062 45.3559L257.399 48.7554L262.182 46.6716L265.32 51.2368L261.424 54.6099L264 58.358L286.005 39.6378L282.22 34.1318ZM289.79 45.1437L265.208 60.1159L271.972 69.9546L275.5 67.8056L271.313 61.7149L292.367 48.8918L289.79 45.1437ZM297.679 56.6203L273.098 71.5925L280.103 81.7836L283.632 79.6345L279.203 73.1916L286.384 68.8176L289.927 73.9712L293.455 71.8221L289.912 66.6685L296.728 62.5175L301.157 68.9604L304.685 66.8114L297.679 56.6203ZM323.294 101.669C323.51 104.074 322.963 106.476 321.49 108.585C320.053 110.64 317.926 112.168 315.446 112.926C312.966 113.685 310.273 113.631 307.794 112.774C305.547 111.989 303.74 110.655 302.384 108.923C315.39 109.116 314.575 108.862 323.3 101.671L323.294 101.669ZM279.612 39.379L268.406 48.6928L265.914 45.0684L279.612 39.379ZM306.595 86.9178C306.742 87.1314 306.772 87.3523 306.876 87.576C304.176 88.3 301.731 89.6756 299.776 91.5706C299.601 91.7413 299.417 91.8749 299.249 92.0568C299.109 91.9024 298.925 91.8342 298.806 91.6618C297.373 89.5779 297.959 86.8606 300.124 85.5417C302.289 84.2229 305.162 84.8339 306.595 86.9178Z" fill="url(#paint1_linear_294_2116)" fill-opacity="0.5"/>
</g>
<defs>
<linearGradient id="paint0_linear_294_2116" x1="0" y1="0" x2="37.8091" y2="148.365" gradientUnits="userSpaceOnUse">
<stop stop-color="#2DCAD4"/>
<stop offset="1" stop-color="#288F96"/>
</linearGradient>
<linearGradient id="paint1_linear_294_2116" x1="268.897" y1="7.32128" x2="310.701" y2="84.5016" gradientUnits="userSpaceOnUse">
<stop stop-color="white"/>
<stop offset="1" stop-color="white" stop-opacity="0"/>
</linearGradient>
</defs>
</svg>
