<svg width="55" height="56" viewBox="0 0 55 56" fill="none" xmlns="http://www.w3.org/2000/svg">
<path d="M32 40C32 41.0609 31.5786 42.0783 30.8284 42.8284C30.0783 43.5786 29.0609 44 28 44C26.9391 44 25.9217 43.5786 25.1716 42.8284C24.4214 42.0783 24 41.0609 24 40C24 38.9391 24.4214 37.9217 25.1716 37.1716C25.9217 36.4214 26.9391 36 28 36C29.0609 36 30.0783 36.4214 30.8284 37.1716C31.5786 37.9217 32 38.9391 32 40Z" fill="#204F52"/>
<path d="M33.6469 0L41.9755 11.6933L47.4676 9.81706L52.4805 24.5098H55V56H0V24.5098H1.33571V24.4836L3.03286 24.4993L33.6469 0ZM20.6826 24.5098H46.9464L44.2305 16.5507L40.2443 17.8287L20.6826 24.5098ZM16.6021 20.3558L36.7976 13.462L32.5967 7.55764L16.6021 20.3558ZM10.4762 29.7582H5.2381V35.0066C6.62732 35.0066 7.95965 34.4536 8.94199 33.4693C9.92432 32.4851 10.4762 31.1502 10.4762 29.7582ZM36.6667 40.2549C36.6667 39.0488 36.4296 37.8544 35.9689 36.7401C35.5082 35.6258 34.833 34.6133 33.9818 33.7604C33.1306 32.9075 32.1201 32.231 31.0079 31.7694C29.8958 31.3079 28.7038 31.0703 27.5 31.0703C26.2962 31.0703 25.1042 31.3079 23.9921 31.7694C22.8799 32.231 21.8694 32.9075 21.0182 33.7604C20.167 34.6133 19.4918 35.6258 19.0311 36.7401C18.5704 37.8544 18.3333 39.0488 18.3333 40.2549C18.3333 42.6908 19.2991 45.027 21.0182 46.7494C22.7373 48.4719 25.0688 49.4395 27.5 49.4395C29.9312 49.4395 32.2627 48.4719 33.9818 46.7494C35.7009 45.027 36.6667 42.6908 36.6667 40.2549ZM49.7619 50.7516V45.5033C48.3727 45.5033 47.0403 46.0562 46.058 47.0405C45.0757 48.0247 44.5238 49.3597 44.5238 50.7516H49.7619ZM44.5238 29.7582C44.5238 31.1502 45.0757 32.4851 46.058 33.4693C47.0403 34.4536 48.3727 35.0066 49.7619 35.0066V29.7582H44.5238ZM5.2381 50.7516H10.4762C10.4762 49.3597 9.92432 48.0247 8.94199 47.0405C7.95965 46.0562 6.62732 45.5033 5.2381 45.5033V50.7516Z" fill="#204F52"/>
</svg>
