<svg width="28" height="24" viewBox="0 0 28 24" fill="none" xmlns="http://www.w3.org/2000/svg">
<path d="M27.095 8.57176H25.3393V4.28615C25.3393 4.05882 25.244 3.84081 25.0742 3.68007C24.9045 3.51933 24.6743 3.42902 24.4343 3.42902H2.71493C2.47491 3.42902 2.24473 3.33872 2.07501 3.17798C1.9053 3.01724 1.80995 2.79923 1.80995 2.5719C1.80995 2.34458 1.9053 2.12657 2.07501 1.96583C2.24473 1.80508 2.47491 1.71478 2.71493 1.71478H24.0723C24.3124 1.71478 24.5425 1.62448 24.7123 1.46373C24.882 1.30299 24.9773 1.08498 24.9773 0.857658C24.9773 0.630335 24.882 0.412323 24.7123 0.251581C24.5425 0.0908393 24.3124 0.000535403 24.0723 0.000535403H2.71493C2.36551 -0.00628745 2.01809 0.0521576 1.69253 0.172532C1.36697 0.292906 1.06963 0.472851 0.817515 0.702087C0.565397 0.931323 0.363433 1.20536 0.223161 1.50854C0.0828892 1.81172 0.00705823 2.1381 0 2.46905V20.4686C0.00118451 20.9342 0.0993336 21.395 0.288826 21.8246C0.478319 22.2542 0.755432 22.6442 1.1043 22.9722C1.45316 23.3003 1.86692 23.5599 2.32188 23.7363C2.77684 23.9126 3.26406 24.0022 3.75565 24H24.4343C24.6743 24 24.9045 23.9097 25.0742 23.7489C25.244 23.5882 25.3393 23.3702 25.3393 23.1428V18.8572H27.095C27.2092 18.8654 27.324 18.8514 27.4323 18.8161C27.5406 18.7808 27.6402 18.725 27.7249 18.6519C27.8096 18.5789 27.8777 18.4903 27.925 18.3915C27.9723 18.2926 27.9978 18.1857 27.9999 18.0772V9.50602C28.0029 9.27047 27.911 9.0427 27.7428 8.86912C27.5747 8.69553 27.343 8.58919 27.095 8.57176ZM26.2443 17.143H18.4796C17.5522 17.1117 16.6757 16.7331 16.0428 16.0902C15.4099 15.4474 15.0723 14.5929 15.104 13.7145C15.0723 12.8361 15.4099 11.9816 16.0428 11.3388C16.6757 10.6959 17.5522 10.3173 18.4796 10.286H26.2443V17.143Z" fill="white"/>
<path d="M19.0411 14.9317C19.7908 14.9317 20.3985 14.3561 20.3985 13.646C20.3985 12.936 19.7908 12.3604 19.0411 12.3604C18.2914 12.3604 17.6836 12.936 17.6836 13.646C17.6836 14.3561 18.2914 14.9317 19.0411 14.9317Z" fill="white"/>
</svg>
