<svg width="29" height="23" viewBox="0 0 29 23" fill="none" xmlns="http://www.w3.org/2000/svg">
<path d="M0.293199 7.65469L3.32114 1.81741C3.90221 0.703348 5.08033 0 6.37574 0H22.6296C23.9197 0 25.1031 0.703348 25.6789 1.81741L28.7068 7.65469C28.8987 8.02433 29 8.42991 29 8.84576C29 10.2473 27.8699 11.3973 26.4412 11.4949V21.3571C26.4412 22.2658 25.6789 23 24.7353 23C23.7917 23 23.0294 22.2658 23.0294 21.3571V11.5H17.9118V20.5357C17.9118 21.8962 16.7656 23 15.3529 23H5.11765C3.70496 23 2.55882 21.8962 2.55882 20.5357V11.4949C1.13015 11.3973 0 10.2473 0 8.84576C0 8.43504 0.101287 8.02433 0.293199 7.65469ZM5.97059 11.5V17.25C5.97059 17.7018 6.35441 18.0714 6.82353 18.0714H13.6471C14.1162 18.0714 14.5 17.7018 14.5 17.25V11.5H5.97059Z" fill="currentColor"/>
</svg>
