<svg width="24" height="23" viewBox="0 0 24 23" fill="none" xmlns="http://www.w3.org/2000/svg">
<path d="M16.8 20.7V23H2.4C1.08 23 0 21.965 0 20.7V5.75H2.4V20.7H16.8ZM21.6 0H7.2C5.88 0 4.8 1.035 4.8 2.3V16.1C4.8 17.365 5.88 18.4 7.2 18.4H21.6C22.92 18.4 24 17.365 24 16.1V2.3C24 1.035 22.92 0 21.6 0ZM15.6 13.8H13.2V11.5H15.6V13.8ZM17.76 7.82C17.4 8.28 16.92 8.625 16.44 8.855C16.2 9.085 15.96 9.2 15.84 9.43C15.6 9.66 15.6 10.005 15.6 10.35H13.2C13.2 9.775 13.32 9.315 13.56 8.97C13.8 8.625 14.16 8.28 14.76 7.935C15.12 7.705 15.36 7.475 15.48 7.245C15.72 7.015 15.72 6.67 15.72 6.325C15.72 5.98 15.6 5.635 15.36 5.405C15.12 5.175 14.88 5.06 14.4 5.06C14.04 5.06 13.8 5.175 13.56 5.29C13.32 5.52 13.2 5.75 13.2 6.095H10.92C10.92 5.175 11.16 4.485 11.88 4.025C12.72 3.68 13.56 3.45 14.64 3.45C15.72 3.45 16.68 3.68 17.28 4.255C17.88 4.83 18.24 5.52 18.24 6.325C18.24 6.9 18 7.36 17.76 7.82Z" fill="currentColor"/>
</svg>
